<?xml version="1.0" encoding="UTF-8"?>
<svg version="1.1" xmlns="http://www.w3.org/2000/svg" width="2790" height="801">
<path d="M0 0 C1.95348422 -0.00573832 1.95348422 -0.00573832 3.94643277 -0.01159257 C7.52749434 -0.02179831 11.10845497 -0.0197099 14.68952453 -0.01541197 C18.56490311 -0.01293113 22.44025823 -0.02197569 26.31562805 -0.02944946 C33.89500748 -0.04216105 41.47435141 -0.04399458 49.0537397 -0.0416492 C55.21846991 -0.03986187 61.38318939 -0.04162456 67.54791832 -0.04587364 C68.86699359 -0.04676643 68.86699359 -0.04676643 70.21271684 -0.04767724 C71.99953547 -0.04888907 73.78635409 -0.05010321 75.57317271 -0.05131962 C92.30833899 -0.06218158 109.0434851 -0.06003908 125.77865251 -0.05393478 C141.06434992 -0.04876714 156.34998357 -0.06001943 171.63566837 -0.07903299 C187.35798926 -0.09843868 203.08028003 -0.10666259 218.80261296 -0.10290974 C227.61867731 -0.1010018 236.43468742 -0.10344546 245.25074196 -0.11762428 C252.75626015 -0.12957393 260.26169069 -0.13090298 267.76721016 -0.11883412 C271.59088694 -0.11297041 275.41440369 -0.11177585 279.23806953 -0.12383652 C283.39679381 -0.13680075 287.5551419 -0.12617147 291.71386719 -0.11352539 C292.90320164 -0.12089968 294.09253608 -0.12827396 295.31791097 -0.13587171 C315.25406314 -0.00914089 332.48197906 5.90462467 347.29740906 19.44819641 C364.26042067 37.68026126 365.85244081 58.84475402 365.82206726 82.57417297 C365.82642016 84.82581755 365.83160523 87.07746064 365.83755493 89.32910156 C365.85089509 95.41813086 365.85152908 101.5070979 365.84899163 107.59613895 C365.84791837 112.69264621 365.85281444 117.78914105 365.85759705 122.88564563 C365.86930767 135.60413211 365.86847707 148.32257379 365.86204024 161.04105982 C365.8568753 172.05171759 365.86811972 183.06228677 365.88713846 194.07292703 C365.9065761 205.41419956 365.91447192 216.75541813 365.91101521 228.09671187 C365.9092087 234.44968622 365.91177507 240.80257946 365.92572975 247.15554047 C365.93837216 253.13434011 365.93630361 259.11296347 365.92331886 265.09176064 C365.92096732 267.27490361 365.92363617 269.45805923 365.93194199 271.64118767 C366.0412094 302.61648097 366.0412094 302.61648097 358.92240906 315.57319641 C358.57468445 316.23069885 358.22695984 316.88820129 357.86869812 317.56562805 C349.27924582 333.25612845 336.41216741 343.55176045 319.54740906 349.26069641 C313.49714991 350.91322939 307.82493373 351.54774757 301.56863403 351.50120544 C300.28303096 351.50376872 300.28303096 351.50376872 298.97145611 351.50638378 C296.12486012 351.50965489 293.2785045 351.49871449 290.43193054 351.48774719 C288.38136806 351.48718256 286.33080517 351.48750065 284.28024292 351.4886322 C278.73133038 351.4892047 273.18250478 351.47746705 267.63361239 351.46348429 C261.82803208 351.45095975 256.02244965 351.44980507 250.21685791 351.44743347 C239.23110542 351.44122377 228.24539285 351.42481984 217.25965792 351.40473449 C204.7494147 351.38235963 192.23916954 351.37137807 179.72891128 351.36134362 C154.00172176 351.34045318 128.27456765 351.3052871 102.54740906 351.26069641 C102.55109623 352.16423387 102.5547834 353.06777132 102.55858231 353.9986887 C102.64711486 376.0352452 102.71320677 398.07177083 102.75465775 420.10846806 C102.77523854 430.7654772 102.803273 441.42236725 102.84916687 452.07929993 C102.88917234 461.37336847 102.91487441 470.66735071 102.92376304 479.96150297 C102.92895466 484.87773449 102.94106236 489.79371925 102.97032928 494.70987129 C102.99771557 499.34821311 103.00580773 503.98620925 102.99983978 508.62462425 C103.00092973 510.31636567 103.0087442 512.00812007 103.02423096 513.69979095 C103.1944968 533.27818347 98.80465767 550.48964039 84.78178406 565.05366516 C84.04444031 565.78198547 83.30709656 566.51030579 82.54740906 567.26069641 C81.93381531 567.89620422 81.32022156 568.53171204 80.68803406 569.18647766 C66.92030548 582.45409644 48.33901761 585.39541151 30.04350281 585.46382141 C28.84741898 585.46952148 27.65133514 585.47522156 26.41900635 585.48109436 C23.8933754 585.49051157 21.36773234 585.49706525 18.84208679 585.50093079 C15.02163143 585.51060344 11.20172207 585.54164586 7.38139343 585.57319641 C-16.8034994 585.67781501 -36.71870798 582.97029592 -55.20259094 566.07319641 C-67.53737535 552.72585507 -73.62822707 536.27563054 -73.58401871 518.16356659 C-73.58607134 517.37320149 -73.58812397 516.58283639 -73.59023881 515.76852083 C-73.59589021 513.12189462 -73.59445386 510.47532075 -73.59303284 507.82868958 C-73.59561754 505.911181 -73.598631 503.99367297 -73.60203624 502.07616568 C-73.61009717 496.80780424 -73.61189531 491.53945643 -73.61263371 486.27108955 C-73.61448585 480.58852397 -73.62203404 474.90596543 -73.62876892 469.22340393 C-73.64234663 456.7975887 -73.64837617 444.37177669 -73.65277958 431.94595528 C-73.65554312 424.18524228 -73.6597807 416.42453052 -73.66428375 408.66381836 C-73.676476 387.17134403 -73.68681056 365.67887132 -73.69015884 344.18639374 C-73.69038047 342.79711337 -73.69060226 341.407833 -73.6908242 340.01855263 C-73.69104483 338.62596963 -73.69126532 337.23338663 -73.69148564 335.84080362 C-73.69192819 333.04717414 -73.69237531 330.25354465 -73.69282532 327.45991516 C-73.69293471 326.76726006 -73.6930441 326.07460495 -73.6931568 325.3609603 C-73.69678598 302.91073024 -73.71270131 280.46053251 -73.73601568 258.01031483 C-73.76063589 234.25910325 -73.774326 210.50791388 -73.77552676 186.75668859 C-73.77644286 173.81577123 -73.78217887 160.87489618 -73.80034637 147.93399048 C-73.81576392 136.91314543 -73.82085806 125.89235577 -73.81260827 114.87150198 C-73.80870758 109.25146381 -73.80960307 103.63153714 -73.82366562 98.01151276 C-73.83643918 92.85936473 -73.83517669 87.70741159 -73.82307491 82.5552637 C-73.82112389 80.69855429 -73.82416861 78.84183091 -73.83291927 76.9851411 C-73.93179903 54.57315982 -69.81552653 35.52145209 -54.26509094 18.51069641 C-38.84617257 4.16502062 -20.56774531 -0.064992 0 0 Z " fill="#00CBFF" transform="translate(81.45259094238281,107.73930358886719)"/>
<path d="M0 0 C2 3 2 3 3.3125 6.3125 C6.725134 14.27531266 12.3506021 18.33956122 20 22 C31.42219163 26.11809798 42.25047093 26.57543743 54.26953125 26.5390625 C56.08502878 26.54899858 57.90051626 26.56095069 59.71598816 26.57479858 C64.45161293 26.60686866 69.18700685 26.61752679 73.92272949 26.62164307 C81.51666643 26.63046465 89.11041674 26.66619675 96.70419884 26.7138176 C99.33524715 26.72628165 101.96605073 26.72565635 104.59712219 26.72354126 C124.24259214 26.77113123 141.82728794 31.26324948 156.625 45.0625 C174.40573148 63.80090104 176.30341951 85.02752317 176.29052734 109.6965332 C176.29651922 111.98920916 176.30332628 114.28188311 176.31088257 116.57455444 C176.32848073 122.77507736 176.33323528 128.975545 176.33451414 135.17609048 C176.33593959 139.056473 176.3402166 142.93684163 176.34550858 146.81722069 C176.36303531 159.67466851 176.37235138 172.53207199 176.37084763 185.38953004 C176.37076772 186.08074831 176.3706878 186.77196658 176.37060547 187.48413086 C176.37052371 188.17620466 176.37044195 188.86827845 176.37035771 189.58132418 C176.36954507 200.79314223 176.388684 212.00482586 176.4168822 223.21660504 C176.44568867 234.76240883 176.45905298 246.30812982 176.45769465 257.85397214 C176.45718631 264.32263958 176.46279923 270.79115469 176.48405075 277.25979042 C176.50350251 283.34614425 176.50351011 289.43220146 176.48901749 295.51856613 C176.48693704 297.74244689 176.49158428 299.96634657 176.5037384 302.19019508 C176.61264893 323.51119158 173.71528527 341.7146408 158.234375 357.79296875 C157.49703125 358.52128906 156.7596875 359.24960937 156 360 C155.38640625 360.63550781 154.7728125 361.27101563 154.140625 361.92578125 C140.37289643 375.19340003 121.79160856 378.1347151 103.49609375 378.203125 C102.30000992 378.20882507 101.10392609 378.21452515 99.87159729 378.22039795 C97.34596634 378.22981516 94.82032328 378.23636884 92.29467773 378.24023438 C88.47422237 378.24990703 84.65431301 378.28094944 80.83398438 378.3125 C56.64909155 378.4171186 36.73388296 375.70959951 18.25 358.8125 C4.28608689 343.70229552 -0.16826584 326.17012782 -0.12025452 306.04774475 C-0.12110894 304.73911057 -0.12196337 303.4304764 -0.12284368 302.08218664 C-0.12507445 298.46088891 -0.12108679 294.83962088 -0.11606562 291.21832693 C-0.11174092 287.30907467 -0.11320898 283.39982404 -0.1139679 279.49057007 C-0.11449185 272.72117276 -0.11135846 265.9517851 -0.10573006 259.18239021 C-0.09759767 249.39502198 -0.09499805 239.60765841 -0.09374207 229.82028716 C-0.09155428 213.94032877 -0.08490161 198.06037552 -0.07543945 182.18041992 C-0.06625826 166.75594102 -0.05918088 151.33146351 -0.05493164 135.90698242 C-0.05466892 134.9559699 -0.05440619 134.00495737 -0.05413551 133.02512629 C-0.05283046 128.25410201 -0.05156675 123.48307772 -0.05032361 118.71205342 C-0.03995951 79.14136535 -0.02234863 39.57068301 0 0 Z " fill="#0050FF" transform="translate(8,315)"/>
<path d="M0 0 C0.98488381 1.94928083 1.94913297 3.87786877 2.7890625 5.89453125 C6.64491119 14.74136165 13.40167659 19.11250571 21.99609375 22.95703125 C29.29419915 25.49096381 36.2171812 26.29390034 43.91200256 26.26501465 C45.34839739 26.27158655 45.34839739 26.27158655 46.81381029 26.27829123 C50.00100334 26.29054682 53.18803036 26.28880752 56.37524414 26.28710938 C58.66898338 26.2931376 60.96272041 26.30006286 63.25645447 26.30781555 C68.18527434 26.32267573 73.1140539 26.3314465 78.04289436 26.33552551 C85.83799901 26.34225109 93.6330175 26.36401881 101.42808533 26.38806152 C112.35707798 26.42037646 123.28606763 26.44723771 134.21508789 26.46826172 C135.25401168 26.47026421 135.25401168 26.47026421 136.31392383 26.47230715 C141.93368453 26.48308384 147.55344588 26.49350427 153.17320728 26.5039072 C158.08723291 26.51301831 163.00125825 26.52227083 167.9152832 26.53173828 C168.95338705 26.53373439 168.95338705 26.53373439 170.01246268 26.53577083 C181.56153581 26.55821871 193.11057346 26.58850086 204.65961355 26.62413073 C212.40729327 26.64746495 220.15491286 26.66121662 227.90262425 26.66762543 C232.72238782 26.67356611 237.54210262 26.68766406 242.3618412 26.70396996 C244.59509904 26.7098427 246.82836882 26.71231885 249.06163406 26.71113014 C252.11285328 26.70996912 255.16379907 26.72100257 258.21498108 26.73498535 C259.09602117 26.73168638 259.97706126 26.7283874 260.88479954 26.72498846 C274.34670755 26.82661975 286.33855047 31.57256482 296 41 C303.54105731 50.1269449 307.09717932 59.92620112 307.15390015 71.70826721 C307.1582824 72.35758978 307.16266465 73.00691235 307.1671797 73.67591137 C307.18046695 75.8380619 307.1867237 78.00017177 307.19287109 80.16235352 C307.2007801 81.71848225 307.20904953 83.27460919 307.21765137 84.83073425 C307.24378179 89.93010733 307.25917123 95.02948823 307.2734375 100.12890625 C307.2788011 101.8899988 307.28417862 103.6510913 307.28956985 105.41218376 C307.31118647 112.74260149 307.32991984 120.0730171 307.34119225 127.4034586 C307.35741172 137.8790053 307.39055478 148.35418003 307.44759309 158.82958657 C307.48640581 166.21159053 307.50583836 173.59349549 307.51111281 180.97559875 C307.51475111 185.37641983 307.52660908 189.77684335 307.55921555 194.17755318 C307.58949616 198.32359418 307.59553772 202.4690012 307.58383179 206.61512947 C307.5836127 208.12711462 307.59177908 209.63913094 307.60948563 211.15101242 C307.76859386 225.53274411 304.11182418 238.17347766 294.2265625 248.9296875 C284.68112636 258.00759207 272.42233636 261.33708798 259.5546875 261.22705078 C258.64643723 261.22734283 257.73818695 261.22763489 256.80241394 261.22793579 C253.82650912 261.2265522 250.85086061 261.21103698 247.875 261.1953125 C245.8013523 261.19157892 243.72770283 261.18873358 241.65405273 261.18673706 C236.21579047 261.17912781 230.77763629 261.15950268 225.3394165 261.1373291 C219.78228212 261.1168122 214.22513015 261.10772287 208.66796875 261.09765625 C197.77859854 261.07625415 186.88930828 261.04215105 176 261 C175.99413376 260.32142944 175.98826752 259.64285889 175.98222351 258.94372559 C175.91769207 251.80418473 175.83312793 244.66507009 175.73754883 237.52587891 C175.70298601 234.8705701 175.67643662 232.21553359 175.65356445 229.56005859 C175.41788376 202.91309729 174.07256917 182.16441952 154.984375 161.85546875 C142.92118596 150.17204677 126.32835723 144.84615777 109.82421875 144.8581543 C109.0377446 144.85467987 108.25127045 144.85120544 107.44096375 144.84762573 C105.74301855 144.84031035 104.04506405 144.83494267 102.34710693 144.83133507 C99.64555347 144.82410651 96.94417512 144.80839073 94.24267578 144.78999329 C86.56464114 144.7378399 78.88670386 144.68964442 71.20849609 144.67407227 C66.49935515 144.66389987 61.79065933 144.63434419 57.08169556 144.59275246 C55.30225008 144.58056796 53.52274138 144.57529782 51.74325562 144.57755089 C35.12530441 144.59340705 20.07401808 142.84609821 7.09765625 131.30859375 C0.0853868 123.91913621 -0.43946345 114.97178642 -0.34057617 105.23803711 C-0.34101425 104.09555511 -0.34145233 102.95307312 -0.34190369 101.77597046 C-0.33982547 98.02625009 -0.31653942 94.27698533 -0.29296875 90.52734375 C-0.28736938 87.91704045 -0.28310089 85.30673398 -0.28010559 82.69642639 C-0.2708148 76.54489508 -0.2462417 70.39352543 -0.21605712 64.24206501 C-0.18242018 57.23354822 -0.16600385 50.22502334 -0.15097082 43.2164458 C-0.11968911 28.81088082 -0.06698695 14.40544268 0 0 Z " fill="#0095FF" transform="translate(8,198)"/>
<path d="M0 0 C20.79 0 41.58 0 63 0 C63.04530874 26.03614616 63.08208288 52.07225993 63.10362434 78.10843563 C63.11389638 90.19999042 63.12787793 102.29151881 63.15087891 114.38305664 C63.17093845 124.93340387 63.18374595 135.48373196 63.18817699 146.03409773 C63.1907633 151.61008137 63.1967552 157.1860103 63.21146011 162.76197624 C63.34753377 216.56502862 60.93575205 263.81286093 22 305 C21.24203125 305.82242187 20.4840625 306.64484375 19.703125 307.4921875 C-2.96705162 331.27364729 -36.82519158 345.31860623 -69.546875 346.203125 C-109.63614409 346.71373399 -146.64750285 335.16938306 -176 307 C-177.68662458 305.35353315 -179.35511706 303.68816933 -181 302 C-181.56847656 301.47664063 -182.13695312 300.95328125 -182.72265625 300.4140625 C-207.09100691 277.45064657 -220.21533365 241.63366394 -221.203125 208.6953125 C-221.45096011 190.88772408 -219.71565385 173.95321057 -214 157 C-213.79004395 156.37174316 -213.58008789 155.74348633 -213.36376953 155.09619141 C-200.9702482 118.54565392 -174.55404425 88.51108546 -140.15673828 71.03613281 C-109.89806105 56.49936281 -75.43746772 54.6072602 -43.64916992 65.3269043 C-36.6233883 67.84709156 -29.83438126 70.85862501 -23.1875 74.25 C-22.25695801 74.71442505 -22.25695801 74.71442505 -21.30761719 75.18823242 C-13.73797306 79.25373767 -7.95421529 84.5359737 -1 90 C-0.505 45.45 -0.505 45.45 0 0 Z M-132 139 C-132.61488281 139.60199219 -133.22976563 140.20398438 -133.86328125 140.82421875 C-151.29116068 159.29376454 -156.71360543 184.0546343 -156.30859375 208.65234375 C-155.46561038 232.09847453 -145.3069212 253.93445718 -128.26953125 270.046875 C-112.26730105 283.81815745 -92.18661568 291.35024781 -71 290 C-51.46252867 287.34624721 -36.02166434 279.76374075 -22 266 C-21.31164063 265.33613281 -20.62328125 264.67226563 -19.9140625 263.98828125 C-2.06791627 245.4720228 2.68639003 220.50160295 2.30859375 195.7265625 C2.02910153 187.40674012 0.76480822 179.84387803 -2 172 C-2.23605957 171.3296875 -2.47211914 170.659375 -2.71533203 169.96875 C-10.6325282 148.40702426 -25.62265442 131.76517683 -46.10546875 121.43359375 C-76.59093441 107.94266773 -108.57499793 115.97818213 -132 139 Z " fill="#FFFFFF" transform="translate(1650,230)"/>
<path d="M0 0 C158.51670971 0 158.51670971 0 173.5 4.1875 C174.28205811 4.40180664 175.06411621 4.61611328 175.86987305 4.83691406 C194.74029381 10.21379567 210.25504685 19.01960681 225 32 C225.62132812 32.53753906 226.24265625 33.07507813 226.8828125 33.62890625 C246.48480307 51.81773006 256.4497244 79.72424778 257.87670898 105.81689453 C259.00766808 136.08649788 248.36047964 163.18704975 228.2578125 185.609375 C209.61383543 205.548855 180.02493939 218.9715299 152.80383301 220.09025764 C150.41746815 220.12195216 148.03303813 220.12383272 145.64648438 220.11352539 C144.73359901 220.11364593 143.82071365 220.11376646 142.8801651 220.11389065 C139.9513345 220.11314958 137.02256908 220.1055584 134.09375 220.09765625 C132.27506542 220.09618433 130.45638041 220.09516516 128.63769531 220.09460449 C121.92512371 220.08938059 115.2125612 220.07541933 108.5 220.0625 C85.9775 220.0315625 85.9775 220.0315625 63 220 C63 258.94 63 297.88 63 338 C42.21 338 21.42 338 0 338 C0 226.46 0 114.92 0 0 Z M63 57 C63 92.31 63 127.62 63 164 C83.41875 164.0928125 83.41875 164.0928125 104.25 164.1875 C108.52614258 164.21481201 112.80228516 164.24212402 117.20800781 164.27026367 C121.08773444 164.28030553 121.08773444 164.28030553 124.96746826 164.28633118 C126.67696485 164.29089613 128.38645262 164.30135919 130.09588623 164.31672668 C148.40425034 164.47288885 163.75418088 161.97518262 177.8125 149.0625 C188.75785628 137.44506044 193.54743453 123.16839695 193.25 107.3671875 C192.12341546 92.19350202 185.94943582 78.86173516 174.4609375 68.76953125 C164.07095745 60.7899068 153.57673746 56.82691382 140.5378418 56.88647461 C139.68479115 56.88635407 138.83174051 56.88623354 137.95283985 56.88610935 C135.20160596 56.88685355 132.45044047 56.89445929 129.69921875 56.90234375 C127.99662305 56.9038147 126.2940269 56.90483447 124.59143066 56.90539551 C118.29011353 56.91063069 111.98880609 56.92459194 105.6875 56.9375 C84.5571875 56.9684375 84.5571875 56.9684375 63 57 Z " fill="#FFFFFF" transform="translate(696,230)"/>
<path d="M0 0 C0.67975891 0.00182281 1.35951782 0.00364563 2.05987549 0.00552368 C12.61477402 0.05308223 22.50288909 0.68119595 32.75 3.3125 C33.40967773 3.4681543 34.06935547 3.62380859 34.74902344 3.78417969 C52.45761047 7.99890753 69.43048477 16.07892498 83.75 27.3125 C84.54494873 27.9324585 84.54494873 27.9324585 85.35595703 28.56494141 C115.33229427 52.18185421 134.04288746 86.46611459 138.75 124.3125 C139.73946676 132.81276061 139.88704884 141.22876 139.86352539 149.7800293 C139.86324267 151.20035297 139.86340291 152.62067678 139.8639679 154.04100037 C139.86425255 157.86255423 139.85840983 161.68407613 139.85139394 165.50562263 C139.84510481 169.51211363 139.84455223 173.51860553 139.84336853 177.52510071 C139.84027151 185.09667518 139.83208026 192.66823506 139.82201904 200.23980314 C139.80870698 210.48207334 139.80334483 220.72434758 139.79751682 230.96662426 C139.78813913 247.08192708 139.76820938 263.19719913 139.75 279.3125 C118.96 279.3125 98.17 279.3125 76.75 279.3125 C76.42 271.7225 76.09 264.1325 75.75 256.3125 C73.790625 257.941875 71.83125 259.57125 69.8125 261.25 C44.40906854 281.54976658 10.3170231 289.87780655 -21.765625 287.09423828 C-52.5989209 283.46341349 -79.23375348 268.81274074 -101.25 247.3125 C-101.889375 246.72339844 -102.52875 246.13429688 -103.1875 245.52734375 C-129.0919549 221.12198925 -143.08453188 183.12591216 -144.453125 148.171875 C-144.91167181 124.17072233 -140.28921326 100.72018951 -129.25 79.3125 C-128.75113281 78.28382813 -128.25226562 77.25515625 -127.73828125 76.1953125 C-111.31986576 43.67651378 -81.34581126 19.31692622 -47.25 7.3125 C-31.70430953 2.32982871 -16.34396316 -0.06974233 0 0 Z M-50.25 75.3125 C-51.43142578 76.32570313 -51.43142578 76.32570313 -52.63671875 77.359375 C-68.09416866 91.71079447 -78.25995994 113.65302158 -79.3762207 134.69140625 C-80.20925291 162.74475738 -73.36819843 187.96602874 -53.76660156 208.78710938 C-39.74879522 222.8861522 -20.64854558 230.94928891 -0.8125 231.5625 C20.32894093 231.29856191 38.92459367 223.00137286 54.125 208.375 C69.20466064 192.49271226 79.19208671 170.38992572 79.75 148.3125 C79.80800781 147.17941406 79.80800781 147.17941406 79.8671875 146.0234375 C80.53886489 123.11177533 72.7614977 100.56930719 57.75 83.3125 C56.574375 81.765625 56.574375 81.765625 55.375 80.1875 C42.73650465 66.34533842 23.66554871 57.10718087 4.9375 56.109375 C-16.03375352 55.71170901 -34.26231343 61.54857657 -50.25 75.3125 Z " fill="#FFFFFF" transform="translate(2627.25,288.6875)"/>
<path d="M0 0 C0.69063538 -0.00067474 1.38127075 -0.00134949 2.09283447 -0.00204468 C13.02952395 0.01490578 23.4742859 0.64074653 34.125 3.25 C34.78967285 3.40033691 35.4543457 3.55067383 36.13916016 3.70556641 C61.3573418 9.52793728 83.7714678 23.3270492 102.125 41.25 C102.90101563 41.96414063 103.67703125 42.67828125 104.4765625 43.4140625 C122.8975413 60.79357254 134.79093155 85.01163141 141.125 109.25 C141.57552734 110.93029297 141.57552734 110.93029297 142.03515625 112.64453125 C146.81380281 134.22623267 146.19019989 160.05445582 140.125 181.25 C139.88894043 182.07564453 139.65288086 182.90128906 139.40966797 183.75195312 C133.59480715 203.2922849 124.13755438 220.59812649 111.125 236.25 C110.64305176 236.82975586 110.16110352 237.40951172 109.66455078 238.00683594 C86.68754931 265.1621814 52.71230352 283.00470112 17.37890625 286.96875 C-21.3081238 289.92789523 -60.31908068 281.15080824 -90.328125 255.4921875 C-91.16859375 254.75226563 -92.0090625 254.01234375 -92.875 253.25 C-93.71546875 252.53070312 -94.5559375 251.81140625 -95.421875 251.0703125 C-124.60612362 225.6020707 -140.80597535 190.01891005 -143.7265625 151.6484375 C-145.37663399 113.87048504 -133.56512795 77.64221821 -108.5 49.1875 C-106.96733595 47.53327983 -105.42536747 45.88763982 -103.875 44.25 C-103.05515625 43.36570312 -102.2353125 42.48140625 -101.390625 41.5703125 C-74.89991596 13.90398028 -37.91611088 0.03328053 0 0 Z M-59.5234375 85.234375 C-75.35527069 105.53699165 -81.45368271 131.28169811 -78.4140625 156.63671875 C-75.50629166 176.72405093 -67.04379563 193.64085788 -52.875 208.25 C-52.04935547 209.18585938 -52.04935547 209.18585938 -51.20703125 210.140625 C-38.65183865 223.90483615 -19.97327554 229.76658935 -1.97265625 231.53515625 C19.11091061 232.26436232 37.20911013 223.50609309 52.76953125 209.9453125 C66.86945118 196.73340596 75.90809342 178.19114596 79.125 159.25 C79.32029297 158.1053125 79.32029297 158.1053125 79.51953125 156.9375 C82.97260689 131.89119138 76.48118505 106.75789336 61.375 86.625 C48.32929432 69.93341804 30.24422984 59.00586849 9.125 56.25 C-18.47060154 54.47620475 -41.20261513 64.41261497 -59.5234375 85.234375 Z " fill="#FFFFFF" transform="translate(1260.875,288.75)"/>
<path d="M0 0 C6.87551398 6.07656061 12.97209074 12.56042735 18.43359375 19.95703125 C18.82611328 20.48570801 19.21863281 21.01438477 19.62304688 21.55908203 C29.69119466 35.30904455 37.21089057 50.60212448 41.99609375 66.95703125 C42.35525879 68.17350342 42.35525879 68.17350342 42.72167969 69.41455078 C44.62189449 76.44591364 44.85182167 82.39399419 45.43359375 89.95703125 C23.98359375 89.95703125 2.53359375 89.95703125 -19.56640625 89.95703125 C-21.54640625 82.53203125 -21.54640625 82.53203125 -23.56640625 74.95703125 C-24.58707407 72.10888201 -25.57797637 69.44010509 -26.81640625 66.70703125 C-27.10870117 66.04936768 -27.40099609 65.3917041 -27.70214844 64.71411133 C-30.83819798 57.93558485 -34.89124682 51.49147512 -40.30078125 46.2890625 C-41.56640625 44.95703125 -41.56640625 44.95703125 -41.56640625 42.95703125 C-42.448125 42.56064453 -42.448125 42.56064453 -43.34765625 42.15625 C-45.64414837 40.91501218 -47.18708978 39.57054287 -49.06640625 37.76953125 C-63.85953244 24.6895796 -82.87074884 19.96319632 -102.25976562 20.78662109 C-123.37365764 22.34647467 -141.74857151 33.36914501 -155.4375 49.1640625 C-170.94962422 69.51483098 -177.13414299 95.089656 -174.10546875 120.34765625 C-171.21994634 140.26530022 -162.86241888 157.63637033 -148.56640625 171.95703125 C-147.880625 172.65441406 -147.19484375 173.35179687 -146.48828125 174.0703125 C-132.00380295 187.8842131 -112.6571091 194.39626562 -92.8359375 194.171875 C-72.07380342 192.80757706 -53.53555469 183.13302812 -39.56640625 167.95703125 C-30.21095546 156.52097476 -24.79697649 144.05893204 -20.56640625 129.95703125 C1.21359375 129.95703125 22.99359375 129.95703125 45.43359375 129.95703125 C40.3310733 155.46963349 31.78017287 179.06704926 14.43359375 198.95703125 C13.66144531 199.85421875 12.88929688 200.75140625 12.09375 201.67578125 C9.91658755 204.14695368 7.69066086 206.55889745 5.43359375 208.95703125 C4.83546875 209.61960937 4.23734375 210.2821875 3.62109375 210.96484375 C-19.45927739 235.53748027 -56.10281802 250.09439922 -89.34375 251.171875 C-126.28116691 251.94544841 -161.50056227 241.6704467 -189.56640625 216.95703125 C-190.41847656 216.22613281 -191.27054688 215.49523437 -192.1484375 214.7421875 C-220.61327102 189.86278616 -237.64748585 154.41604092 -240.29516602 116.78759766 C-242.31557144 78.54493199 -230.59911081 41.60544141 -205.12890625 12.76953125 C-203.61811112 11.15590713 -202.0969761 9.55191076 -200.56640625 7.95703125 C-199.74785156 7.0753125 -198.92929688 6.19359375 -198.0859375 5.28515625 C-145.17150984 -50.05223634 -56.26295859 -48.49502031 0 0 Z " fill="#FFFFFF" transform="translate(2273.56640625,325.04296875)"/>
<path d="M0 0 C20.46 0 40.92 0 62 0 C62.029729 7.28094727 62.029729 7.28094727 62.06005859 14.70898438 C62.12709397 30.78226478 62.20463448 46.85548198 62.28752708 62.92868805 C62.337509 72.66972812 62.38395276 82.41076037 62.421875 92.15185547 C62.45496248 100.64868561 62.49488434 109.14545242 62.54279006 117.64221239 C62.56788966 122.1352663 62.58971836 126.6282791 62.60334396 131.12138367 C62.61631623 135.36327687 62.63852835 139.60502788 62.66738319 143.84684181 C62.67634204 145.3913855 62.68212127 146.935952 62.68421364 148.48052025 C62.71925849 170.45003353 65.11203461 191.18538531 80.5625 208.1875 C93.1734136 219.97543651 109.30051786 224.68754566 126.27709961 224.47094727 C141.28498262 223.86131771 157.28010992 218.96918985 168 208 C182.10763659 191.10531504 185.45602804 173.02881403 185.43237305 151.78344727 C185.44141475 150.11622402 185.45174776 148.44900736 185.46325684 146.78179932 C185.49057055 142.30553947 185.50007604 137.8294066 185.50611091 133.35307431 C185.51556211 128.65655166 185.54177034 123.96012141 185.56611633 119.26365662 C185.60960091 110.3924749 185.63825824 101.5213113 185.66143972 92.65005583 C185.68858872 82.54101947 185.73249382 72.43207691 185.77772844 62.32310784 C185.87031604 41.54877601 185.93990353 20.77445298 186 0 C206.46 0 226.92 0 248 0 C248.09057652 22.86290783 248.164142 45.72566857 248.20724869 68.58871078 C248.22780305 79.20634166 248.25578605 89.82385248 248.30175781 100.44140625 C248.34184519 109.70439309 248.36748448 118.9672929 248.37635398 128.23036408 C248.38153194 133.12719398 248.39355026 138.02377509 248.42292023 142.9205246 C248.450437 147.54657051 248.4583733 152.17226945 248.45243073 156.79838943 C248.453515 158.47996799 248.46125 160.16156037 248.4768219 161.84306717 C248.764444 194.55639916 237.67845495 224.35700929 214.9765625 248.08203125 C191.86549323 271.30811912 158.82969106 281.14435047 126.74880981 281.24819946 C126.04795258 281.24879364 125.34709534 281.24938782 124.625 281.25 C123.55353226 281.25101212 123.55353226 281.25101212 122.4604187 281.25204468 C111.38672304 281.23543825 100.77867723 280.68666534 90 278 C89.31550781 277.83902832 88.63101562 277.67805664 87.92578125 277.51220703 C70.20505932 273.24989845 54.2588574 265.28983802 40 254 C39.23429687 253.40574219 38.46859375 252.81148437 37.6796875 252.19921875 C31.9706459 247.50884927 27.49408969 241.83171348 23 236 C22.40316406 235.25363281 21.80632812 234.50726562 21.19140625 233.73828125 C4.45385956 211.58905664 -0.35281478 184.40536321 -0.22705078 157.34619141 C-0.22648525 155.62001044 -0.226806 153.893829 -0.22793579 152.16764832 C-0.22850476 147.52602021 -0.21682509 142.88449751 -0.20278788 138.2428937 C-0.19020373 133.37558827 -0.189104 128.50827988 -0.18673706 123.64096069 C-0.18054472 114.44387717 -0.16416459 105.24684174 -0.14403808 96.0497793 C-0.1216088 85.57082159 -0.11066805 75.09186148 -0.10064721 64.61288571 C-0.07979614 43.07522442 -0.04314828 21.53762896 0 0 Z " fill="#FFFFFF" transform="translate(1753,293)"/>
<path d="M0 0 C20.46 0 40.92 0 62 0 C62 20.79 62 41.58 62 63 C78.5 63 95 63 112 63 C112 81.81 112 100.62 112 120 C95.5 120 79 120 62 120 C62 191.94 62 263.88 62 338 C41.54 338 21.08 338 0 338 C0 226.46 0 114.92 0 0 Z " fill="#FFFFFF" transform="translate(2356,230)"/>
<path d="M0 0 C0 18.48 0 36.96 0 56 C-5.94 56.99 -11.88 57.98 -18 59 C-26.27573875 61.70975517 -33.08027664 64.75735827 -40 70 C-41.03125 70.7425 -42.0625 71.485 -43.125 72.25 C-54.70212653 83.3237732 -60.79405051 99.11321906 -61.35668886 114.97675574 C-61.43143709 118.73979003 -61.43646845 122.50124575 -61.43237305 126.26489258 C-61.44140956 127.961377 -61.45174134 129.65785493 -61.46325684 131.35432434 C-61.49063137 135.91954231 -61.50008453 140.48463575 -61.50611091 145.04992509 C-61.51554591 149.83587894 -61.54175312 154.62174161 -61.56611633 159.40763855 C-61.60964479 168.45242541 -61.63827537 177.49719443 -61.66143972 186.54205388 C-61.68856492 196.84692803 -61.73247169 207.15170983 -61.77772844 217.45651782 C-61.87037903 238.63764173 -61.93993443 259.81875689 -62 281 C-82.79 281 -103.58 281 -125 281 C-125.06796213 259.06705127 -125.12312367 237.13418902 -125.15543652 215.20116138 C-125.17084485 205.0151725 -125.19181764 194.82925414 -125.22631836 184.64331055 C-125.25640691 175.75570441 -125.27561872 166.86814939 -125.28226548 157.98049372 C-125.28614511 153.28320935 -125.2951337 148.5860711 -125.31719017 143.888834 C-125.42706034 119.51508756 -125.48126781 96.18382488 -117 73 C-116.63132812 71.95714844 -116.26265625 70.91429687 -115.8828125 69.83984375 C-111.02975591 57.13822323 -102.93022851 46.14420743 -94 36 C-93.46246094 35.37867188 -92.92492187 34.75734375 -92.37109375 34.1171875 C-69.18527325 9.1299624 -32.79119254 0 0 0 Z " fill="#FFFFFF" transform="translate(1102,287)"/>
</svg>
